. 
  
http://www.torrentday.com/        :     The Hottest Private Tracker On The Net!!! 
http://www.torrentday.com          :     Once you visit it, You can't stop yourself visiting Torrentday everyday ;)


               www . TorrentDay . Com 

(((((((((((((= Enjoy No RAR releases =))))))))))))))))))))


...................................NFO:....................................

.[img]http://img703.imageshack.us/img703/6728/69893465.jpg[/img]

The Company Men 2011 DVDSCR XViD HQ Hive-CM8



[b]Thx Hive

CM8 Doing It Right The First Time :D

Source DVD-R Memedic
thx

Encode:added brightness,sharpness,chroma,denoise,deinterlace and corrected rgb colours. got very nice

Video: 720x400 @bitrate 1500 2pass
Audio: English 5.1 @448 1:1 as on dvd-r
Sample: yes included[/b]


[url]http://www.imdb.com/title/tt1172991/[/url]


General
Complete name                    : The.Company.Men.2011.DVDSCR.XViD.HQ.Hive-CM8.avi
Format                           : AVI
Format/Info                      : Audio Video Interleave
File size                        : 1.43 GiB
Duration                         : 1h 44mn
Overall bit rate                 : 1 953 Kbps
Writing application              : Nandub v1.0rc2
Writing library                  : Nandub build 1853/release

Video
ID                               : 0
Format                           : MPEG-4 Visual
Format profile                   : Advanced Simple@L5
Format settings, BVOP            : Yes
Format settings, QPel            : Yes
Format settings, GMC             : No warppoints
Format settings, Matrix          : Default (H.263)
Muxing mode                      : Packed bitstream
Codec ID                         : XVID
Codec ID/Hint                    : XviD
Duration                         : 1h 44mn
Bit rate                         : 1 495 Kbps
Width                            : 720 pixels
Height                           : 400 pixels
Display aspect ratio             : 16:9
Frame rate                       : 23.976 fps
Color space                      : YUV
Chroma subsampling               : 4:2:0
Bit depth                        : 8 bits
Scan type                        : Progressive
Bits/(Pixel*Frame)               : 0.217
Stream size                      : 1.09 GiB (77%)
Writing library                  : XviD 1.2.1 (UTC 2008-12-04)

Audio
ID                               : 1
Format                           : AC-3
Format/Info                      : Audio Coding 3
Mode extension                   : CM (complete main)
Codec ID                         : 2000
Duration                         : 1h 44mn
Bit rate mode                    : Constant
Bit rate                         : 448 Kbps
Channel(s)                       : 6 channels
Channel positions                : Front: L C R, Side: L R, LFE
Sampling rate                    : 48.0 KHz
Bit depth                        : 16 bits
Stream size                      : 335 MiB (23%)
Alignment                        : Split accross interleaves
Interleave, duration             : 42 ms (1.00 video frame)
Interleave, preload duration     : 500 ms



Tommy Lee Jones - (Gene McClary)
Ben Affleck - (Bobby Walker)
Chris Cooper - (Phil Woodward)
Maria Bello - (Sally Wilcox)
Rosemarie DeWitt - (Maggie Walker)
Kevin Costner - (Jack Dolan)
Craig T. Nelson - (James Salinger)
Eamonn Walker - (Danny Mills)




The story centers on a year in the life of three men trying to survive a round of corporate 
downsizing at a major company - and how that affects them, their families, and their communities.  




[img]http://img43.imageshack.us/img43/6862/ccocoococococcoo.png[/img]
[img]http://img233.imageshack.us/img233/2296/ccoococococcoo.png[/img]
[img]http://img717.imageshack.us/img717/2596/79013142.png[/img]
[img]http://img443.imageshack.us/img443/1572/coccoo.png[/img]
[img]http://img26.imageshack.us/img26/7/cococcoo.png[/img]
[img]http://img508.imageshack.us/img508/4928/cocococcoo.png[/img]
[img]http://img402.imageshack.us/img402/6849/cococococcoo.png[/img]
[img]http://img291.imageshack.us/img291/6459/ccocococoococococcoo.png[/img]
[img]http://img412.imageshack.us/img412/227/ccococoococococcoo.png[/img]
[img]http://img707.imageshack.us/img707/5574/thedv.png[/img]





Greetz

iNK,LUSi,,MAGNET,CLASSiFiED,THC,LEGi0N,IMAGiNE,ViSiON,WBZ,FLAWL3SS,NOVA
Rapeseed,D2U,SAFC,goldadvance,MEMORY100,KaN1vE,Unevano,Pinnz,Wayne,Mr Hive
and all P2P groups 
Great Work Guys :D